# xmcd
#
# Track frame offsets:
# 150
# 11144
# 17444
# 29006
# 36576
# 48214
# 65883
# 73831
# 80119
# 90011
# 108254
# 118331
# 128918
# 132947
# 139825
# 158270
# 171659
#
# Disc length: 2525 seconds
#
#
# Revision: 0
# Processed by: cddbd v1.5.1PL0 Copyright (c) Steve Scherf et al.
# Submitted via: FreeRIP 2.20 
#
DISCID=f109db11
DTITLE=Collin Raye - Live at Billy Bob's Texas
DYEAR=2004
DGENRE=Country
TTITLE0=My Kind Of Girl
TTITLE1=I Want You Bad (And That Ain't Good)
TTITLE2=I Can Still Feel You
TTITLE3=Someone You Used To Know
TTITLE4=Not That Different
TTITLE5=On The Verge
TTITLE6=Somebody Else's Moon
TTITLE7=Every Second
TTITLE8=That Was A River
TTITLE9=That's My Story
TTITLE10=One Boy, One Girl
TTITLE11=I Think About You
TTITLE12=If I Were You
TTITLE13=The Gift
TTITLE14=Little Rock
TTITLE15=In This Life
TTITLE16=Love, Me
EXTD=
EXTT0=
EXTT1=
EXTT2=
EXTT3=
EXTT4=
EXTT5=
EXTT6=
EXTT7=
EXTT8=
EXTT9=
EXTT10=
EXTT11=
EXTT12=
EXTT13=
EXTT14=
EXTT15=
EXTT16=
PLAYORDER=
